<?xml version="1.0" encoding="utf-8"?>
<!-- Generator: Adobe Illustrator 17.0.0, SVG Export Plug-In . SVG Version: 6.00 Build 0)  -->
<!DOCTYPE svg PUBLIC "-//W3C//DTD SVG 1.1//EN" "http://www.w3.org/Graphics/SVG/1.1/DTD/svg11.dtd">
<svg version="1.1" id="Layer_1" xmlns="http://www.w3.org/2000/svg" xmlns:xlink="http://www.w3.org/1999/xlink" x="0px" y="0px"
	 width="468px" height="84px" viewBox="0 0 468 84" enable-background="new 0 0 468 84" xml:space="preserve">
<g>
	
		<image overflow="visible" opacity="0.34" width="35" height="59" xlink:href="B4D47AD78E4B1BD5.png"  transform="matrix(0.24 0 0 0.24 3.973 2.3896)">
	</image>
	<g>
		<text transform="matrix(1 0 0 1 4.873 12.272)" fill="#FFFFFF" font-family="'OpenSans-Light'" font-size="10.9487">P</text>
	</g>
</g>
<g>
	
		<image overflow="visible" opacity="0.34" width="70" height="60" xlink:href="B4D47AD78E4B1BDB.png"  transform="matrix(0.24 0 0 0.24 51.6112 2.2587)">
	</image>
	<g>
		<text transform="matrix(1 0 0 1 52.5112 12.1411)" fill="#FFFFFF" font-family="'OpenSans-Extrabold'" font-size="10.9487">H1</text>
	</g>
</g>
<g>
	
		<image overflow="visible" opacity="0.34" width="69" height="60" xlink:href="B4D47AD78E4B1BDF.png"  transform="matrix(0.24 0 0 0.24 104.1 2.2587)">
	</image>
	<g>
		<text transform="matrix(1 0 0 1 105 12.1411)" fill="#FFFFFF" font-family="'OpenSans-Bold'" font-size="10.9487">H2</text>
	</g>
</g>
<g>
	
		<image overflow="visible" opacity="0.34" width="68" height="60" xlink:href="B4D47AD78E4B1BD2.png"  transform="matrix(0.24 0 0 0.24 156.4652 2.3178)">
	</image>
	<g>
		<text transform="matrix(1 0 0 1 157.3652 12.2002)" fill="#FFFFFF" font-family="'OpenSans-Semibold'" font-size="10.9487">H3</text>
	</g>
</g>
<g>
	
		<image overflow="visible" opacity="0.34" width="68" height="59" xlink:href="B4D47AD78E4B1BD3.png"  transform="matrix(0.24 0 0 0.24 208.3808 2.3793)">
	</image>
	<g>
		<text transform="matrix(1 0 0 1 209.2808 12.2615)" fill="#FFFFFF" font-family="'OpenSans'" font-size="10.9487">H4</text>
	</g>
</g>
</svg>
