<svg 
 xmlns="http://www.w3.org/2000/svg"
 xmlns:xlink="http://www.w3.org/1999/xlink"
 width="74px" height="74px">
<path fill-rule="evenodd"  fill="rgb(0, 0, 0)"
 d="M72.682,18.100 C72.313,18.146 71.900,18.161 71.516,18.161 C70.841,18.161 70.257,18.113 70.162,18.106 C69.324,18.033 68.703,17.285 68.774,16.435 C68.844,15.585 69.586,14.944 70.419,15.023 C70.740,15.050 71.707,15.105 72.301,15.030 C73.122,14.927 73.899,15.524 74.003,16.372 C74.107,17.220 73.517,17.993 72.682,18.100 ZM67.766,10.977 C67.516,11.138 67.235,11.214 66.958,11.214 C66.451,11.214 65.957,10.958 65.667,10.490 C65.219,9.767 65.433,8.812 66.145,8.358 C66.593,8.073 67.311,7.067 67.658,6.451 C68.074,5.710 69.005,5.452 69.735,5.876 C70.465,6.299 70.719,7.244 70.302,7.986 C70.101,8.342 69.035,10.167 67.766,10.977 ZM62.735,7.027 C62.839,7.874 62.247,8.647 61.412,8.754 C61.350,8.761 61.285,8.765 61.221,8.765 C60.466,8.765 59.808,8.193 59.714,7.411 C59.587,6.398 59.692,4.505 59.703,4.293 C59.752,3.441 60.457,2.767 61.314,2.840 C62.152,2.890 62.792,3.621 62.744,4.475 C62.704,5.168 62.667,6.473 62.735,7.027 ZM67.239,12.894 C68.473,14.766 68.815,16.982 68.129,18.676 C67.150,21.088 64.127,23.692 60.948,23.692 C59.419,23.692 57.224,23.104 55.442,20.303 C54.051,18.109 53.639,16.101 54.229,14.339 C55.140,11.600 58.131,10.507 59.256,10.094 C62.242,9.007 65.440,10.167 67.239,12.894 ZM57.114,15.330 C56.837,16.156 57.137,17.264 58.003,18.627 C58.833,19.936 59.825,20.599 60.948,20.599 C62.872,20.599 64.788,18.794 65.311,17.499 C65.606,16.771 65.365,15.612 64.708,14.616 C64.340,14.058 63.301,12.762 61.589,12.762 C61.168,12.762 60.729,12.844 60.288,13.005 C59.541,13.279 57.554,14.005 57.114,15.330 ZM56.234,11.018 C55.999,11.151 55.744,11.214 55.494,11.214 C54.960,11.214 54.442,10.929 54.162,10.422 C53.666,9.519 52.530,8.807 52.134,8.608 C51.382,8.232 51.068,7.307 51.437,6.541 C51.803,5.775 52.707,5.452 53.465,5.826 C53.697,5.940 55.765,6.996 56.822,8.913 C57.232,9.659 56.969,10.601 56.234,11.018 ZM52.473,16.551 C52.579,17.399 51.989,18.171 51.153,18.278 C50.910,18.308 50.662,18.321 50.425,18.321 C49.574,18.321 48.836,18.163 48.734,18.140 C47.912,17.957 47.393,17.132 47.572,16.298 C47.753,15.463 48.571,14.934 49.386,15.120 C49.597,15.166 50.270,15.275 50.774,15.209 C51.596,15.101 52.370,15.702 52.473,16.551 ZM24.009,15.320 C23.541,22.621 20.793,65.809 20.797,72.460 C20.797,73.312 20.115,74.007 19.275,74.008 L19.274,74.008 C18.433,74.008 17.752,73.316 17.751,72.461 C17.748,65.943 20.241,26.532 20.889,16.384 C15.864,18.089 9.958,20.061 2.982,22.360 C2.827,22.410 2.668,22.435 2.511,22.435 C2.082,22.435 1.663,22.250 1.369,21.911 C0.968,21.449 0.875,20.788 1.133,20.230 C1.403,19.646 7.910,5.866 21.079,1.610 C24.362,0.549 28.178,0.012 32.421,0.012 C39.373,0.012 47.131,1.597 48.697,3.336 C49.067,3.749 49.246,4.259 49.201,4.771 C49.110,5.791 49.012,6.769 24.009,15.320 ZM32.422,3.104 C28.492,3.104 24.987,3.592 22.003,4.558 C13.912,7.172 8.486,14.008 5.817,18.168 C10.866,16.491 16.551,14.576 22.045,12.691 C22.055,12.688 22.064,12.686 22.074,12.682 C31.474,9.458 40.303,6.327 44.381,4.638 C41.859,3.913 37.441,3.104 32.422,3.104 ZM52.255,26.361 C52.019,26.495 51.762,26.560 51.509,26.560 C50.978,26.560 50.461,26.276 50.182,25.772 C49.770,25.028 50.028,24.086 50.760,23.665 C51.556,23.209 52.605,22.423 52.841,22.027 C53.272,21.294 54.209,21.057 54.928,21.495 C55.651,21.933 55.886,22.884 55.453,23.616 C54.678,24.932 52.654,26.134 52.255,26.361 ZM61.439,30.529 C61.374,30.537 61.311,30.540 61.247,30.540 C60.490,30.540 59.836,29.969 59.738,29.186 C59.613,28.173 59.717,26.281 59.729,26.069 C59.778,25.216 60.478,24.554 61.338,24.616 C62.178,24.665 62.819,25.397 62.770,26.249 C62.730,26.943 62.692,28.248 62.760,28.801 C62.866,29.649 62.275,30.422 61.439,30.529 ZM70.270,26.560 C69.336,26.560 67.504,26.037 66.925,24.030 C66.689,23.210 67.152,22.350 67.958,22.111 C68.768,21.867 69.611,22.341 69.848,23.160 C69.938,23.472 70.257,23.481 70.258,23.467 C71.115,23.435 71.795,24.127 71.814,24.982 C71.830,25.836 71.162,26.543 70.321,26.560 C70.306,26.560 70.287,26.560 70.270,26.560 ZM26.790,36.258 C27.169,36.365 27.534,36.512 27.893,36.675 C27.627,36.376 27.383,36.050 27.177,35.680 C25.483,32.637 26.019,30.390 26.766,29.040 C28.182,26.485 31.170,25.479 32.834,25.426 L33.018,25.422 C34.159,25.422 37.994,25.839 39.445,31.197 C39.799,32.508 39.470,33.926 38.521,35.190 C37.087,37.100 34.406,38.434 32.001,38.434 C31.336,38.433 30.717,38.326 30.142,38.140 C31.391,39.218 32.488,40.635 33.449,42.249 C33.613,41.883 33.818,41.527 34.097,41.196 C35.595,39.409 38.537,38.488 40.349,38.754 C42.303,39.038 43.540,40.705 44.532,42.046 C44.844,42.465 45.165,42.901 45.429,43.170 C46.540,43.347 50.313,42.423 52.675,41.811 L50.677,37.748 L53.875,36.768 L52.459,32.949 L49.999,32.337 C49.590,32.236 49.340,31.818 49.440,31.403 C49.541,30.987 49.954,30.732 50.361,30.835 L53.601,31.640 L55.337,36.320 L57.535,35.646 L57.221,40.808 C58.625,40.832 59.870,41.595 60.476,42.889 C61.214,44.467 60.752,46.257 59.304,47.447 C57.844,48.648 53.921,49.731 48.463,50.948 C48.866,51.591 49.415,52.167 50.074,52.145 C51.005,52.080 53.119,51.883 55.585,51.654 C58.892,51.350 62.824,50.986 65.405,50.795 C68.659,50.575 70.305,52.675 70.767,53.965 C71.685,56.524 73.550,64.033 73.944,67.765 C74.202,70.213 72.322,72.577 69.752,73.036 C69.480,73.087 69.196,73.111 68.904,73.111 C68.361,73.111 67.796,73.016 67.238,72.813 C67.103,73.391 66.650,73.866 66.038,73.981 C65.941,74.000 65.849,74.008 65.757,74.008 C65.037,74.008 64.398,73.488 64.261,72.744 L62.065,60.753 L39.152,64.176 L35.679,73.033 C35.441,73.640 34.869,74.008 34.263,74.008 C34.076,74.008 33.885,73.972 33.700,73.898 C32.919,73.583 32.538,72.682 32.849,71.888 L36.500,62.578 C35.652,56.322 32.286,41.027 25.972,39.237 C25.161,39.008 24.687,38.156 24.914,37.333 C25.140,36.510 25.979,36.028 26.790,36.258 ZM39.352,61.019 L41.066,60.763 C40.332,60.341 39.653,59.819 39.043,59.173 C39.169,59.873 39.271,60.496 39.352,61.019 ZM36.171,44.130 L36.271,44.457 C36.946,46.661 39.000,53.374 39.893,55.092 C40.836,56.907 42.591,59.255 46.895,58.819 C52.439,58.243 63.078,57.469 63.185,57.462 C63.275,57.457 63.358,57.485 63.445,57.495 C63.538,57.505 63.630,57.504 63.718,57.530 C63.792,57.553 63.853,57.597 63.922,57.629 C64.023,57.677 64.128,57.715 64.217,57.784 C64.364,57.898 64.490,58.037 64.589,58.197 C64.608,58.228 64.612,58.266 64.628,58.298 C64.697,58.430 64.763,58.567 64.791,58.722 L66.305,66.986 C66.836,69.131 67.892,70.227 69.226,69.991 C70.121,69.831 71.015,69.030 70.916,68.095 C70.555,64.674 68.774,57.446 67.904,55.024 C67.855,54.896 67.357,53.747 65.625,53.881 C63.059,54.070 59.150,54.430 55.862,54.736 C53.368,54.967 51.227,55.165 50.285,55.231 C47.814,55.421 46.196,53.441 45.350,51.641 C41.907,52.379 40.026,49.584 39.214,48.365 L39.017,48.071 C38.532,47.374 38.696,46.409 39.382,45.916 C40.070,45.423 41.020,45.591 41.505,46.288 L41.735,46.631 C42.786,48.208 43.566,48.941 44.881,48.586 C45.143,48.514 45.735,48.384 46.532,48.211 C48.888,47.698 56.056,46.137 57.385,45.043 C57.581,44.882 57.885,44.563 57.725,44.215 C57.626,44.010 57.365,43.820 56.927,43.913 C56.425,44.019 55.612,44.235 54.641,44.489 C47.949,46.258 44.935,46.810 43.592,45.654 C43.048,45.187 42.586,44.565 42.097,43.905 C41.443,43.020 40.625,41.919 39.918,41.816 C39.102,41.701 37.224,42.236 36.415,43.202 C36.075,43.608 36.096,43.890 36.171,44.130 ZM29.828,34.157 C30.272,34.952 30.982,35.340 32.001,35.340 C32.002,35.340 32.002,35.340 32.002,35.340 C33.471,35.340 35.233,34.469 36.100,33.314 C36.355,32.975 36.632,32.475 36.508,32.016 C35.683,28.971 33.968,28.515 33.018,28.515 C31.914,28.549 30.130,29.275 29.421,30.556 C28.892,31.510 29.029,32.722 29.828,34.157 Z"/>
</svg>