<svg xmlns="http://www.w3.org/2000/svg" width="32" height="26" viewBox="0 0 32 26">
  <defs>
    <style>
      .cls-1 {
        fill: #fff;
        fill-rule: evenodd;
      }
    </style>
  </defs>
  <path class="cls-1" d="M0.637,13.647h0l30.725,0a0.647,0.647,0,0,0,0-1.294H0.637a0.647,0.647,0,0,0,0,1.294h0ZM12.8,26a0.63,0.63,0,0,0,.451-0.19,0.654,0.654,0,0,0,0-.914L1.538,13,13.25,1.1a0.655,0.655,0,0,0,0-.915,0.631,0.631,0,0,0-.9,0L0.187,12.543a0.652,0.652,0,0,0,0,.914L12.349,25.81A0.633,0.633,0,0,0,12.8,26h0Z"/>
</svg>
