<svg xmlns="http://www.w3.org/2000/svg" width="66" height="66" viewBox="0 0 66 66">
  <defs>
    <style>
      .cls-1 {
        fill-rule: evenodd;
        opacity: 0.6;
      }
    </style>
  </defs>
  <path class="cls-1" d="M32.818,58.5h8.318a13.663,13.663,0,0,1-.65-2.334H34.871A16.013,16.013,0,0,1,32.818,58.5ZM52.878,46.834A1.17,1.17,0,0,0,54.053,48h1.064c0.008-.763.011-1.544,0.012-2.334H54.053A1.171,1.171,0,0,0,52.878,46.834Zm4.814-1.143a0.972,0.972,0,0,0-.118-0.024H55.128c0-.387,0-0.774,0-1.167a1.17,1.17,0,0,0-1.174-1.166H41.043A1.17,1.17,0,0,0,39.869,44.5c0,9.391,0,17.5,5.869,17.5H49.26c2.409,0,3.82-1.382,4.658-3.644a0.071,0.071,0,0,1,0,.007c3.152-.69,7.083-4.02,7.083-8.03C61,47.6,59.7,45.815,57.692,45.691ZM49.26,59.667H45.738c-3.352,0-3.513-6.369-3.521-14H52.781C52.774,53.3,52.612,59.667,49.26,59.667Zm5.349-4A51.368,51.368,0,0,0,55.117,48h2.36c1.089,0,1.174,1.786,1.174,2.333C58.651,52.7,56.52,54.756,54.609,55.666ZM36.347,48H33.833a4.687,4.687,0,0,0-3.557-3.4c-0.813-2.033-3.963-2.37-5.88-2.425a3.506,3.506,0,0,0-6.666.152,3.5,3.5,0,0,0-2.322,2.25A5.533,5.533,0,0,0,10.731,48H8.174A1.17,1.17,0,0,0,7,49.166C7,54.216,12.545,62,19.913,62h4.7c7.368,0,12.913-7.784,12.913-12.833A1.17,1.17,0,0,0,36.347,48ZM24.608,59.667h-4.7c-5.207,0-9.662-5.322-10.434-9.333H35.043C34.27,54.345,29.815,59.667,24.608,59.667Zm27-35a1.17,1.17,0,0,0-1.174,1.166V27h-4.7V24.667c0-3.662-4.04-6.581-9.391-6.957V12.785a3.524,3.524,0,1,0-2.348,0V17.71c-4.767.335-8.482,2.691-9.239,5.79H21.087a1.169,1.169,0,0,0-1.174,1.166,1.144,1.144,0,0,0,.289.744l4.407,5.5V42.189a14.394,14.394,0,0,1,2.348.262V25.834H43.391v17.5h2.348v-14h4.7V42.167a5.977,5.977,0,0,1-.129,1.167h2.38a8.084,8.084,0,0,0,.1-1.167V25.834A1.171,1.171,0,0,0,51.608,24.667Zm-27,2.508-1.079-1.341h1.079v1.341ZM35.173,8.333A1.167,1.167,0,1,1,34,9.5,1.172,1.172,0,0,1,35.173,8.333ZM27.238,23.5c0.94-1.986,4.188-3.5,7.933-3.5h0c3.747,0,6.994,1.514,7.934,3.5H27.238Z"/>
</svg>
