<svg 
 xmlns="http://www.w3.org/2000/svg"
 xmlns:xlink="http://www.w3.org/1999/xlink"
 width="91px" height="71px">
<path fill-rule="evenodd"  fill="rgb(0, 0, 0)"
 d="M89.531,57.418 C88.840,58.775 87.361,59.654 85.832,59.654 C85.618,59.654 85.405,59.654 85.191,59.654 C83.887,59.654 82.584,59.654 81.280,59.654 C79.920,59.654 78.561,59.654 77.201,59.654 C78.814,62.572 80.426,65.490 82.039,68.408 C82.050,68.427 82.049,68.449 82.059,68.469 C82.193,68.712 82.277,68.985 82.277,69.278 C82.277,69.647 82.152,69.990 81.946,70.273 C81.925,70.302 81.900,70.327 81.877,70.355 C81.757,70.501 81.616,70.630 81.455,70.731 C81.439,70.741 81.431,70.757 81.416,70.766 C81.396,70.778 81.372,70.777 81.351,70.787 C81.177,70.882 80.987,70.947 80.785,70.976 C80.773,70.978 80.762,70.979 80.750,70.980 C80.680,70.989 80.611,71.002 80.538,71.002 C80.217,71.002 79.895,71.002 79.573,71.002 C76.057,71.002 72.541,71.002 69.025,71.002 C63.095,71.002 57.166,71.002 51.236,71.002 C44.729,71.002 38.221,71.002 31.714,71.002 C26.464,71.002 21.213,71.002 15.963,71.002 C13.805,71.002 11.647,71.002 9.489,71.002 C8.144,71.002 7.360,69.545 7.988,68.408 C8.813,66.915 9.638,65.423 10.463,63.930 C11.250,62.504 12.038,61.079 12.826,59.654 C10.231,59.654 7.637,59.654 5.042,59.654 C4.766,59.654 4.489,59.654 4.213,59.654 C2.814,59.654 1.575,58.963 0.764,57.855 C-0.189,56.551 0.027,54.815 0.027,53.294 C0.027,51.987 -0.068,50.631 0.100,49.331 C0.468,46.476 2.013,44.025 4.443,42.443 C5.236,41.926 6.361,42.282 6.821,43.061 C7.319,43.903 6.988,44.904 6.198,45.419 C6.069,45.503 5.943,45.591 5.819,45.681 C5.775,45.722 5.562,45.896 5.526,45.929 C5.263,46.171 5.014,46.429 4.785,46.704 C4.722,46.789 4.604,46.943 4.581,46.977 C4.475,47.135 4.371,47.295 4.277,47.462 C4.184,47.629 4.091,47.797 4.010,47.971 C3.984,48.028 3.980,48.035 3.971,48.054 C3.948,48.111 3.925,48.168 3.905,48.225 C3.774,48.592 3.661,48.967 3.588,49.351 C3.572,49.431 3.558,49.512 3.545,49.593 C3.543,49.606 3.543,49.613 3.541,49.629 C3.523,49.830 3.507,50.031 3.505,50.233 C3.503,50.426 3.504,50.620 3.504,50.813 C3.504,52.379 3.504,53.945 3.504,55.512 C3.504,55.541 3.505,55.566 3.507,55.590 C3.520,55.651 3.535,55.711 3.554,55.771 C3.577,55.822 3.603,55.878 3.620,55.904 C3.633,55.924 3.637,55.932 3.646,55.946 C3.652,55.952 3.654,55.953 3.661,55.961 C3.697,55.996 3.783,56.060 3.830,56.095 C3.861,56.114 3.892,56.131 3.923,56.148 C3.987,56.169 4.080,56.201 4.119,56.209 C4.120,56.209 4.120,56.209 4.121,56.209 C4.142,56.208 4.158,56.207 4.195,56.207 C4.408,56.207 4.622,56.207 4.835,56.207 C6.139,56.207 7.443,56.207 8.747,56.207 C10.741,56.207 12.736,56.207 14.731,56.207 C15.388,55.017 16.046,53.827 16.704,52.637 C18.928,48.611 21.153,44.585 23.377,40.559 C23.669,40.031 24.279,39.706 24.878,39.706 C24.887,39.706 24.895,39.706 24.904,39.706 C27.454,39.706 30.005,39.706 32.555,39.706 C32.555,39.335 32.566,38.965 32.566,38.619 C32.566,37.626 32.566,36.633 32.566,35.640 C32.566,34.401 32.683,33.137 33.173,31.984 C33.948,30.163 35.116,28.690 36.792,27.598 C37.584,27.081 38.710,27.438 39.169,28.217 C39.667,29.059 39.336,30.060 38.546,30.575 C38.483,30.616 37.993,30.976 38.312,30.721 C38.163,30.840 38.015,30.961 37.875,31.092 C37.736,31.223 37.598,31.355 37.469,31.496 C37.437,31.531 37.271,31.734 37.217,31.792 C37.014,32.070 36.819,32.355 36.659,32.660 C36.633,32.710 36.483,33.038 36.476,33.034 C36.423,33.171 36.368,33.307 36.325,33.447 C36.218,33.792 36.135,34.145 36.079,34.502 C36.073,34.605 36.050,34.844 36.049,34.890 C36.045,34.995 36.042,35.100 36.042,35.206 C36.042,35.414 36.042,35.623 36.042,35.831 C36.042,36.790 36.042,37.749 36.042,38.708 C36.042,39.040 36.042,39.373 36.042,39.706 C42.023,39.706 48.004,39.706 53.984,39.706 C53.984,39.344 53.984,38.981 53.984,38.619 C53.984,37.667 53.984,36.716 53.984,35.764 C53.984,35.575 53.986,35.385 53.984,35.196 C53.982,34.995 53.978,34.793 53.960,34.593 C53.955,34.541 53.949,34.490 53.944,34.439 C53.939,34.418 53.933,34.383 53.923,34.317 C53.847,33.937 53.752,33.560 53.616,33.196 C53.595,33.139 53.573,33.082 53.550,33.025 C53.541,33.005 53.538,33.001 53.514,32.947 C53.430,32.776 53.344,32.606 53.247,32.443 C53.150,32.280 53.051,32.118 52.942,31.963 C52.902,31.906 52.861,31.851 52.820,31.795 C52.806,31.777 52.808,31.781 52.782,31.749 C52.536,31.464 52.275,31.189 51.986,30.944 C51.929,30.894 51.870,30.846 51.810,30.798 C51.795,30.787 51.801,30.791 51.780,30.775 C51.662,30.694 51.544,30.616 51.424,30.539 C50.668,30.056 50.362,29.119 50.757,28.309 C50.152,29.000 49.431,29.591 48.589,30.005 C46.075,31.242 42.850,31.210 40.562,29.462 C38.482,27.874 37.076,25.393 37.353,22.717 C37.621,20.145 39.041,17.696 41.438,16.516 C43.821,15.343 46.755,15.318 49.039,16.769 C51.293,18.201 52.667,20.599 52.698,23.261 C52.698,23.263 52.697,23.264 52.697,23.266 C52.678,24.845 52.149,26.409 51.236,27.699 C51.784,27.282 52.573,27.175 53.179,27.562 C54.868,28.641 56.129,30.159 56.865,32.011 C57.326,33.172 57.460,34.402 57.460,35.640 C57.460,36.633 57.460,37.626 57.460,38.619 C57.460,38.965 57.472,39.335 57.472,39.706 C60.031,39.706 62.590,39.706 65.149,39.706 C65.748,39.706 66.358,40.031 66.650,40.559 C67.428,41.968 68.206,43.376 68.984,44.784 C71.088,48.591 73.192,52.399 75.296,56.206 C78.097,56.206 80.898,56.206 83.699,56.206 C84.228,56.206 84.756,56.206 85.285,56.206 C85.431,56.206 85.577,56.206 85.723,56.206 C85.773,56.206 85.861,56.197 85.918,56.193 C86.025,56.157 86.138,56.118 86.134,56.131 C86.170,56.111 86.206,56.091 86.241,56.070 C86.289,56.031 86.343,55.986 86.366,55.960 C86.377,55.947 86.381,55.945 86.390,55.935 C86.397,55.923 86.398,55.919 86.407,55.904 C86.431,55.863 86.463,55.781 86.485,55.725 C86.498,55.680 86.509,55.636 86.520,55.591 C86.521,55.554 86.523,55.514 86.523,55.483 C86.523,54.973 86.523,54.463 86.523,53.953 C86.523,52.764 86.535,51.575 86.523,50.386 C86.521,50.185 86.517,49.984 86.500,49.784 C86.497,49.753 86.478,49.619 86.468,49.542 C86.424,49.291 86.377,49.042 86.307,48.798 C86.235,48.549 86.152,48.303 86.056,48.062 C86.024,47.993 85.981,47.895 85.968,47.871 C85.904,47.744 85.839,47.617 85.768,47.494 C85.615,47.230 85.448,46.975 85.265,46.730 C85.218,46.672 85.155,46.595 85.138,46.575 C85.044,46.470 84.949,46.364 84.849,46.264 C84.650,46.064 84.444,45.869 84.224,45.691 C84.201,45.673 84.193,45.666 84.178,45.653 C84.161,45.642 84.150,45.635 84.124,45.617 C84.007,45.536 83.889,45.457 83.769,45.381 C82.974,44.873 82.651,43.860 83.145,43.022 C83.608,42.239 84.726,41.895 85.523,42.404 C87.290,43.532 88.613,45.125 89.380,47.063 C89.870,48.303 89.999,49.613 89.999,50.932 C89.999,52.028 89.999,53.124 89.999,54.219 C89.999,55.323 90.053,56.392 89.531,57.418 ZM49.197,22.717 C49.196,22.714 49.196,22.713 49.196,22.711 C49.184,22.645 49.173,22.580 49.159,22.514 C49.094,22.218 49.014,21.924 48.903,21.640 C48.874,21.578 48.844,21.516 48.813,21.455 C48.733,21.303 48.651,21.152 48.558,21.008 C48.488,20.900 48.413,20.795 48.338,20.690 C48.294,20.639 48.233,20.566 48.210,20.541 C48.094,20.416 47.977,20.292 47.850,20.177 C47.810,20.140 47.652,20.013 47.596,19.963 C47.388,19.816 47.176,19.671 46.949,19.552 C46.893,19.523 46.645,19.415 46.613,19.395 C46.503,19.355 46.393,19.312 46.280,19.279 C46.110,19.230 45.940,19.183 45.766,19.149 C45.733,19.143 45.656,19.132 45.590,19.123 C45.306,19.097 45.021,19.078 44.737,19.094 C44.643,19.099 44.549,19.108 44.455,19.116 C44.386,19.127 44.295,19.142 44.260,19.149 C44.002,19.205 43.745,19.270 43.496,19.360 C43.459,19.374 43.356,19.419 43.295,19.445 C43.222,19.480 43.148,19.514 43.077,19.552 C42.842,19.681 42.615,19.826 42.398,19.984 C42.348,20.025 42.292,20.071 42.271,20.091 C42.176,20.177 42.081,20.263 41.992,20.355 C41.903,20.447 41.814,20.539 41.731,20.637 C41.707,20.665 41.695,20.678 41.682,20.694 C41.534,20.902 41.393,21.115 41.273,21.341 C41.242,21.401 41.113,21.692 41.111,21.679 C41.086,21.746 41.059,21.812 41.037,21.880 C40.958,22.131 40.886,22.385 40.841,22.644 C40.836,22.671 40.834,22.680 40.831,22.698 C40.830,22.706 40.830,22.708 40.829,22.717 C40.819,22.852 40.808,22.988 40.806,23.124 C40.803,23.357 40.815,23.591 40.838,23.824 C40.856,23.922 40.884,24.090 40.895,24.136 C40.926,24.264 40.958,24.392 40.998,24.517 C41.037,24.641 41.077,24.766 41.125,24.887 C41.128,24.895 41.128,24.897 41.131,24.904 C41.139,24.920 41.144,24.928 41.155,24.951 C41.271,25.181 41.394,25.408 41.538,25.621 C41.584,25.688 41.632,25.754 41.679,25.820 C41.722,25.871 41.791,25.954 41.816,25.980 C42.009,26.189 42.214,26.388 42.435,26.569 C42.472,26.597 42.508,26.624 42.526,26.635 C42.633,26.707 42.740,26.778 42.852,26.842 C42.964,26.907 43.076,26.972 43.192,27.029 C43.224,27.045 43.311,27.082 43.373,27.109 C43.580,27.186 43.787,27.261 44.001,27.313 C44.144,27.347 44.288,27.377 44.433,27.402 C44.499,27.410 44.570,27.418 44.600,27.420 C44.875,27.436 45.151,27.442 45.426,27.420 C45.470,27.417 45.601,27.397 45.667,27.389 C45.743,27.375 45.820,27.362 45.896,27.344 C46.150,27.283 46.403,27.213 46.647,27.118 C46.710,27.089 46.772,27.060 46.834,27.029 C46.949,26.969 47.064,26.910 47.174,26.842 C47.285,26.776 47.395,26.709 47.501,26.635 C47.523,26.620 47.571,26.582 47.616,26.546 C47.792,26.397 47.966,26.244 48.123,26.074 C48.195,25.997 48.265,25.918 48.333,25.838 C48.367,25.793 48.402,25.749 48.416,25.727 C48.584,25.479 48.742,25.223 48.871,24.951 C48.885,24.922 48.891,24.910 48.900,24.892 C48.901,24.890 48.901,24.890 48.902,24.887 C48.947,24.765 48.992,24.642 49.029,24.517 C49.096,24.287 49.152,24.053 49.192,23.817 C49.199,23.758 49.206,23.697 49.208,23.670 C49.215,23.534 49.220,23.398 49.222,23.261 C49.220,23.079 49.216,22.898 49.197,22.717 ZM70.322,54.376 C68.254,50.635 66.187,46.894 64.120,43.153 C60.805,43.153 57.490,43.153 54.175,43.153 C47.802,43.153 41.428,43.153 35.055,43.153 C32.006,43.153 28.956,43.153 25.907,43.153 C25.286,44.276 24.665,45.400 24.045,46.524 C21.784,50.615 19.523,54.706 17.262,58.797 C15.649,61.716 14.036,64.635 12.423,67.554 C15.283,67.554 18.142,67.554 21.002,67.554 C26.932,67.554 32.861,67.554 38.790,67.554 C45.298,67.554 51.806,67.554 58.313,67.554 C63.563,67.554 68.814,67.554 74.064,67.554 C75.244,67.554 76.424,67.554 77.604,67.554 C77.257,66.926 76.910,66.298 76.563,65.670 C74.482,61.905 72.402,58.141 70.322,54.376 ZM79.763,45.216 C76.816,46.364 73.161,45.532 71.052,43.170 C69.275,41.178 68.497,38.461 69.161,35.852 C69.809,33.307 71.682,31.288 74.129,30.336 C76.462,29.428 79.378,29.726 81.429,31.184 C83.610,32.736 84.938,35.090 84.967,37.776 C84.967,37.779 84.967,37.781 84.967,37.784 C84.927,41.105 82.868,44.008 79.763,45.216 ZM81.461,37.223 C81.441,37.119 81.395,36.836 81.378,36.769 C81.324,36.557 81.266,36.346 81.190,36.141 C81.174,36.098 81.157,36.056 81.141,36.013 C81.132,35.995 81.126,35.982 81.114,35.955 C81.019,35.763 80.919,35.573 80.804,35.391 C80.768,35.334 80.596,35.101 80.543,35.020 C80.322,34.760 80.092,34.505 79.830,34.284 C79.791,34.252 79.661,34.155 79.637,34.137 C79.614,34.121 79.592,34.104 79.568,34.088 C79.388,33.971 79.205,33.857 79.013,33.758 C78.912,33.707 78.810,33.656 78.706,33.609 C78.545,33.550 78.383,33.492 78.218,33.447 C78.004,33.389 77.788,33.335 77.569,33.300 C77.555,33.297 77.553,33.297 77.541,33.295 C77.524,33.294 77.518,33.294 77.495,33.292 C77.404,33.284 77.313,33.278 77.222,33.274 C76.992,33.267 76.762,33.265 76.533,33.282 C76.462,33.286 76.392,33.293 76.321,33.300 C76.017,33.356 75.715,33.424 75.422,33.525 C75.340,33.552 75.260,33.583 75.179,33.613 C75.117,33.642 75.025,33.683 74.993,33.700 C74.764,33.817 74.537,33.943 74.323,34.088 C74.283,34.116 74.160,34.210 74.128,34.231 C74.073,34.277 74.017,34.321 73.965,34.369 C73.744,34.571 73.531,34.782 73.342,35.013 C73.335,35.020 73.334,35.021 73.329,35.028 C73.319,35.042 73.315,35.049 73.300,35.070 C73.227,35.175 73.154,35.281 73.088,35.391 C72.964,35.595 72.850,35.805 72.750,36.021 C72.729,36.070 72.709,36.119 72.702,36.141 C72.659,36.265 72.616,36.389 72.581,36.515 C72.534,36.684 72.488,36.854 72.456,37.027 C72.451,37.057 72.441,37.130 72.433,37.193 C72.412,37.432 72.394,37.672 72.402,37.913 C72.406,38.049 72.411,38.185 72.424,38.320 C72.427,38.350 72.428,38.362 72.429,38.381 C72.430,38.387 72.431,38.388 72.432,38.394 C72.480,38.653 72.537,38.911 72.619,39.163 C72.660,39.290 72.706,39.415 72.754,39.540 C72.782,39.601 72.820,39.683 72.835,39.712 C72.954,39.940 73.081,40.165 73.227,40.376 C73.255,40.416 73.350,40.539 73.372,40.570 C73.417,40.624 73.462,40.680 73.510,40.732 C73.685,40.919 73.865,41.102 74.061,41.267 C74.099,41.300 74.139,41.331 74.178,41.363 C74.195,41.376 74.188,41.370 74.217,41.391 C74.323,41.463 74.430,41.536 74.541,41.602 C74.746,41.724 74.958,41.838 75.176,41.937 C75.226,41.957 75.275,41.977 75.298,41.985 C75.422,42.027 75.547,42.070 75.674,42.105 C75.893,42.164 76.115,42.211 76.339,42.249 C76.440,42.257 76.621,42.276 76.670,42.277 C76.808,42.282 76.946,42.286 77.084,42.282 C77.221,42.277 77.358,42.273 77.495,42.260 C77.524,42.257 77.535,42.256 77.555,42.255 C77.561,42.254 77.562,42.253 77.569,42.252 C77.831,42.204 78.091,42.148 78.344,42.067 C78.470,42.027 78.595,41.987 78.717,41.940 C78.726,41.936 78.727,41.936 78.734,41.933 C78.750,41.925 78.758,41.921 78.782,41.909 C79.053,41.777 79.319,41.633 79.568,41.463 C79.609,41.435 79.736,41.339 79.764,41.320 C79.819,41.275 79.874,41.231 79.927,41.183 C80.116,41.010 80.300,40.831 80.467,40.636 C80.492,40.606 80.561,40.516 80.600,40.464 C80.646,40.400 80.693,40.336 80.735,40.269 C80.887,40.030 81.026,39.782 81.144,39.525 C81.164,39.478 81.183,39.432 81.190,39.410 C81.233,39.287 81.276,39.163 81.311,39.037 C81.373,38.813 81.423,38.585 81.461,38.355 C81.468,38.290 81.476,38.215 81.478,38.186 C81.485,38.049 81.490,37.913 81.491,37.776 C81.489,37.591 81.478,37.407 81.461,37.223 ZM70.838,25.853 C69.891,25.853 69.100,25.070 69.100,24.130 C69.100,21.337 69.100,18.543 69.100,15.750 C69.100,11.648 69.100,7.548 69.100,3.447 C67.375,3.447 65.650,3.447 63.924,3.447 C57.985,3.447 52.046,3.447 46.107,3.447 C39.985,3.447 33.862,3.447 27.740,3.447 C25.503,3.447 23.267,3.447 21.030,3.447 C21.030,5.666 21.030,7.885 21.030,10.104 C21.030,14.779 21.030,19.455 21.030,24.130 C21.030,25.070 20.239,25.853 19.292,25.853 C18.344,25.853 17.554,25.070 17.554,24.130 C17.554,21.337 17.554,18.543 17.554,15.750 C17.554,11.074 17.554,6.399 17.554,1.723 C17.554,0.784 18.344,-0.000 19.292,-0.000 C21.596,-0.000 23.901,-0.000 26.206,-0.000 C32.145,-0.000 38.084,-0.000 44.023,-0.000 C50.145,-0.000 56.268,-0.000 62.390,-0.000 C65.206,-0.000 68.022,-0.000 70.838,-0.000 C71.786,-0.000 72.577,0.784 72.577,1.723 C72.577,4.517 72.577,7.311 72.577,10.104 C72.577,14.779 72.577,19.455 72.577,24.130 C72.577,25.070 71.786,25.853 70.838,25.853 ZM21.102,37.776 C21.066,41.100 19.006,44.007 15.898,45.216 C12.951,46.364 9.296,45.532 7.187,43.170 C5.410,41.178 4.632,38.461 5.296,35.852 C5.944,33.307 7.817,31.288 10.264,30.336 C12.596,29.428 15.513,29.726 17.564,31.184 C19.745,32.736 21.073,35.090 21.102,37.776 ZM17.325,36.141 C17.309,36.098 17.292,36.056 17.276,36.013 C17.268,35.996 17.261,35.982 17.249,35.955 C17.154,35.763 17.054,35.573 16.939,35.391 C16.903,35.334 16.731,35.101 16.678,35.021 C16.457,34.760 16.227,34.505 15.965,34.284 C15.926,34.252 15.795,34.155 15.772,34.137 C15.749,34.121 15.726,34.104 15.703,34.088 C15.523,33.971 15.340,33.857 15.148,33.758 C15.047,33.707 14.945,33.656 14.841,33.609 C14.680,33.550 14.518,33.492 14.353,33.447 C14.139,33.389 13.923,33.335 13.704,33.300 C13.690,33.297 13.687,33.297 13.676,33.295 C13.659,33.294 13.653,33.294 13.630,33.292 C13.539,33.284 13.448,33.278 13.357,33.274 C13.127,33.267 12.897,33.265 12.668,33.282 C12.597,33.286 12.526,33.293 12.456,33.300 C12.152,33.356 11.849,33.424 11.557,33.525 C11.475,33.552 11.395,33.583 11.314,33.613 C11.252,33.642 11.160,33.683 11.128,33.700 C10.898,33.817 10.672,33.943 10.458,34.088 C10.418,34.116 10.295,34.210 10.263,34.231 C10.208,34.277 10.152,34.321 10.100,34.369 C9.879,34.571 9.666,34.782 9.476,35.013 C9.470,35.020 9.469,35.021 9.463,35.028 C9.454,35.043 9.449,35.050 9.435,35.070 C9.362,35.175 9.289,35.281 9.222,35.391 C9.099,35.595 8.985,35.805 8.885,36.021 C8.864,36.070 8.844,36.119 8.836,36.141 C8.794,36.265 8.751,36.389 8.716,36.515 C8.669,36.684 8.623,36.854 8.591,37.027 C8.586,37.057 8.576,37.130 8.568,37.193 C8.547,37.432 8.529,37.672 8.537,37.913 C8.541,38.049 8.546,38.185 8.559,38.320 C8.562,38.350 8.563,38.362 8.564,38.381 C8.565,38.387 8.566,38.388 8.567,38.394 C8.615,38.653 8.672,38.911 8.753,39.163 C8.795,39.290 8.841,39.415 8.889,39.540 C8.917,39.601 8.955,39.683 8.970,39.712 C9.089,39.940 9.215,40.165 9.362,40.376 C9.390,40.417 9.486,40.540 9.507,40.570 C9.552,40.624 9.597,40.680 9.645,40.732 C9.820,40.919 10.000,41.102 10.196,41.267 C10.234,41.300 10.274,41.331 10.313,41.363 C10.330,41.376 10.323,41.370 10.352,41.391 C10.458,41.463 10.565,41.536 10.676,41.602 C10.881,41.724 11.093,41.838 11.311,41.937 C11.361,41.957 11.410,41.977 11.432,41.985 C11.557,42.027 11.682,42.070 11.809,42.105 C12.027,42.164 12.250,42.211 12.474,42.249 C12.574,42.257 12.756,42.276 12.805,42.277 C12.943,42.282 13.081,42.286 13.219,42.282 C13.356,42.277 13.494,42.273 13.630,42.260 C13.659,42.257 13.670,42.256 13.690,42.255 C13.696,42.254 13.697,42.253 13.704,42.252 C13.966,42.204 14.226,42.148 14.479,42.067 C14.604,42.027 14.730,41.987 14.852,41.940 C14.861,41.936 14.862,41.936 14.869,41.933 C14.885,41.925 14.893,41.921 14.917,41.909 C15.188,41.777 15.454,41.633 15.703,41.463 C15.744,41.435 15.871,41.339 15.899,41.320 C15.954,41.275 16.009,41.231 16.062,41.183 C16.251,41.010 16.435,40.831 16.602,40.636 C16.627,40.606 16.696,40.516 16.735,40.464 C16.781,40.400 16.828,40.336 16.870,40.269 C17.022,40.030 17.161,39.783 17.279,39.525 C17.299,39.478 17.318,39.432 17.325,39.410 C17.368,39.287 17.411,39.163 17.446,39.037 C17.508,38.813 17.558,38.585 17.596,38.355 C17.603,38.290 17.611,38.215 17.613,38.186 C17.620,38.049 17.625,37.913 17.626,37.776 C17.624,37.591 17.613,37.407 17.596,37.222 C17.576,37.119 17.530,36.836 17.513,36.769 C17.459,36.557 17.401,36.346 17.325,36.141 Z"/>
</svg>