<svg xmlns="http://www.w3.org/2000/svg" width="32" height="26" viewBox="0 0 32 26">
  <defs>
    <style>
      .cls-1 {
        fill: #006ac2;
        fill-rule: evenodd;
      }
    </style>
  </defs>
  <path class="cls-1" d="M29,6.991V22.38a3.642,3.642,0,0,1-3.668,3.613H6.664A3.642,3.642,0,0,1,3,22.38V6.991A3.642,3.642,0,0,1,6.664,3.379H7.9V6.9a2.668,2.668,0,0,0,5.335,0V3.379h5.811V6.9a2.668,2.668,0,0,0,5.335,0V3.379h1A3.632,3.632,0,0,1,29,6.991Zm-1.1,3H4.092V22.38a2.543,2.543,0,0,0,2.572,2.534H25.336a2.543,2.543,0,0,0,2.572-2.534V9.994ZM10.57,8.493a1.594,1.594,0,0,0,1.62-1.6V1.6a1.62,1.62,0,0,0-3.239,0V6.9A1.594,1.594,0,0,0,10.57,8.493Zm11.146,0a1.594,1.594,0,0,0,1.619-1.6V1.6a1.62,1.62,0,0,0-3.239,0V6.9A1.566,1.566,0,0,0,21.716,8.493Z"/>
  <path class="cls-1" d="M20.205,17.157H13.287l2.18-2.045a0.514,0.514,0,0,0,0-.778,0.6,0.6,0,0,0-.829,0l-3.2,2.978a0.566,0.566,0,0,0,0,.8l3.175,2.978a0.6,0.6,0,0,0,.829,0,0.515,0.515,0,0,0,0-.778l-2.18-2.045h6.918a0.543,0.543,0,0,0,.545-0.556A0.524,0.524,0,0,0,20.205,17.157Z"/>
</svg>
