<svg xmlns="http://www.w3.org/2000/svg" width="66" height="66" viewBox="0 0 66 66">
  <defs>
    <style>
      .cls-1 {
        fill-rule: evenodd;
        opacity: 0.6;
      }
    </style>
  </defs>
  <path class="cls-1" d="M63.831,36.784a7.389,7.389,0,0,0-2.852-5.174c-0.471-2.173-2.364-4.672-3.6-6.041,0.21,0,.455.014,0.714,0.034a18.658,18.658,0,0,0,4.281-.372c1.166-.32,1.27-3.136.661-3.5a14.2,14.2,0,0,0-4.279-.384,1.111,1.111,0,0,0-.972.784,7.305,7.305,0,0,0-.117,1.61c0,0.422-.87.052-1.362-0.026l-0.022,0c-1.058-3.3-3.4-9.636-6.052-10.715-3.281-1.337-30.18-1.337-33.463,0-2.65,1.078-4.992,7.413-6.05,10.715a0.033,0.033,0,0,0-.013,0c-0.5.078-1.371,0.449-1.371,0.026a7.4,7.4,0,0,0-.116-1.61,1.117,1.117,0,0,0-.974-0.784,14.184,14.184,0,0,0-4.277.384c-0.61.359-.509,3.175,0.661,3.5a18.643,18.643,0,0,0,4.279.372c0.261-.019.506-0.031,0.715-0.034-1.237,1.369-3.129,3.867-3.6,6.041a7.385,7.385,0,0,0-2.854,5.174c-0.166,1.54-.543,8.877.966,11.273a2.379,2.379,0,0,0,1.257.658v7.4A0.831,0.831,0,0,0,6.166,57h7.517a0.831,0.831,0,0,0,.772-0.881V49.844c7.777,0.479,17.351.483,19.045,0.479s11.273,0,19.047-.479v6.275A0.831,0.831,0,0,0,53.32,57h7.515a0.83,0.83,0,0,0,.772-0.881v-7.4a2.384,2.384,0,0,0,1.258-.658C64.378,45.661,64,38.324,63.831,36.784ZM17.1,14.813c1.957-.154,6.6-0.394,16.509-0.394,9.81,0,14.365.236,16.295,0.388,1.6,1.175,3.628,6.019,4.841,9.877-5.048.205-20.856,0.3-21.24,0.3s-16.188-.093-21.237-0.3C13.475,20.833,15.494,16,17.1,14.813ZM43.33,41.554a0.768,0.768,0,0,1-.773.762H24.444a0.768,0.768,0,0,1-.771-0.762V37.828a0.767,0.767,0,0,1,.771-0.762H42.557a0.767,0.767,0,0,1,.773.762v3.726Zm12.016,1.792a3.737,3.737,0,1,1,3.786-3.736A3.761,3.761,0,0,1,55.346,43.346Zm-43.1,0a3.737,3.737,0,1,1,3.786-3.736A3.761,3.761,0,0,1,12.245,43.346Z"/>
</svg>
