<svg xmlns="http://www.w3.org/2000/svg" width="85" height="30" viewBox="0 0 85 30">
  <defs>
    <style>
      .cls-1 {
        fill: #b7b7b7;
        fill-rule: evenodd;
      }
    </style>
  </defs>
  <path id="Shape_-_Close" data-name="Shape - Close" class="cls-1" d="M81.938,31L52,1.06,53.061,0,83,29.937ZM53.061,31L52,29.937,81.938,0,83,1.06Z"/>
  <path id="Heading_Info" data-name="Heading Info" class="cls-1" d="M9.574,20.352a4.363,4.363,0,0,0,1.432-.888,3.984,3.984,0,0,0,.9-1.24,4.086,4.086,0,0,0,.368-1.464H10a2.174,2.174,0,0,1-.776,1.464,2.552,2.552,0,0,1-1.688.552,2.8,2.8,0,0,1-2.3-1.128,3.879,3.879,0,0,1-.624-1.272A5.721,5.721,0,0,1,4.4,14.76a6.26,6.26,0,0,1,.192-1.584,3.91,3.91,0,0,1,.576-1.28,2.764,2.764,0,0,1,.968-0.856,2.9,2.9,0,0,1,1.384-.312,2.466,2.466,0,0,1,1.632.52,2.278,2.278,0,0,1,.784,1.384h2.3a4.568,4.568,0,0,0-.448-1.52,3.936,3.936,0,0,0-.952-1.224,4.432,4.432,0,0,0-1.432-.816,5.614,5.614,0,0,0-1.888-.3,5.508,5.508,0,0,0-2.28.456A5,5,0,0,0,3.51,10.5a5.692,5.692,0,0,0-1.1,1.9,7.09,7.09,0,0,0-.384,2.36,6.673,6.673,0,0,0,.408,2.376,5.716,5.716,0,0,0,1.136,1.872A5.077,5.077,0,0,0,5.318,20.24a5.517,5.517,0,0,0,2.216.44A5.624,5.624,0,0,0,9.574,20.352Zm5.352,0.088H17.1V9H14.926V20.44Zm10.848-.1a4.07,4.07,0,0,0,2.232-2.3,4.809,4.809,0,0,0,0-3.408,4.07,4.07,0,0,0-2.232-2.3,4.694,4.694,0,0,0-3.488,0,4.07,4.07,0,0,0-2.232,2.3,4.809,4.809,0,0,0,0,3.408,4.07,4.07,0,0,0,2.232,2.3A4.694,4.694,0,0,0,25.774,20.344ZM22.486,18.28a3.212,3.212,0,0,1-.536-1.936,3.249,3.249,0,0,1,.536-1.944,1.974,1.974,0,0,1,3.088,0,3.251,3.251,0,0,1,.536,1.944,3.214,3.214,0,0,1-.536,1.936A1.988,1.988,0,0,1,22.486,18.28ZM35.654,20.5a3.432,3.432,0,0,0,1.088-.52,2.4,2.4,0,0,0,.712-0.824,2.359,2.359,0,0,0,.256-1.112,2.388,2.388,0,0,0-.256-1.176,2.13,2.13,0,0,0-.672-0.736,3.193,3.193,0,0,0-.936-0.424q-0.52-.144-1.032-0.256-0.432-.1-0.84-0.16a4.455,4.455,0,0,1-.72-0.168,1.641,1.641,0,0,1-.5-0.256,0.51,0.51,0,0,1-.192-0.424,0.747,0.747,0,0,1,.384-0.68,1.969,1.969,0,0,1,1.024-.232,1.989,1.989,0,0,1,1.1.264,1.223,1.223,0,0,1,.48.936h1.968a2.857,2.857,0,0,0-1.008-1.984A3.815,3.815,0,0,0,34,12.008a5.148,5.148,0,0,0-1.312.16,3.2,3.2,0,0,0-1.064.488,2.324,2.324,0,0,0-.712.816,2.465,2.465,0,0,0-.256,1.16,2.195,2.195,0,0,0,.248,1.1,2.073,2.073,0,0,0,.656.7,3.192,3.192,0,0,0,.928.416q0.52,0.144,1.08.256,0.416,0.08.808,0.152a4.014,4.014,0,0,1,.688.184,1.409,1.409,0,0,1,.48.288,0.613,0.613,0,0,1,.184.464,0.786,0.786,0,0,1-.392.688,2.029,2.029,0,0,1-1.112.256,2.107,2.107,0,0,1-1.208-.32,1.451,1.451,0,0,1-.584-1.04H30.414a2.859,2.859,0,0,0,1.072,2.1,4.288,4.288,0,0,0,2.768.792A5.005,5.005,0,0,0,35.654,20.5Zm9.992-.032a3.732,3.732,0,0,0,1.112-.584,3.159,3.159,0,0,0,.768-0.856,3.24,3.24,0,0,0,.408-1.032H45.789a1.552,1.552,0,0,1-.56.736A1.737,1.737,0,0,1,44.205,19a1.907,1.907,0,0,1-1.448-.544,2.608,2.608,0,0,1-.648-1.5h5.952a7.151,7.151,0,0,0-.264-2.008,4.608,4.608,0,0,0-.776-1.56,3.5,3.5,0,0,0-1.264-1.016,4,4,0,0,0-1.744-.36,3.92,3.92,0,0,0-2.92,1.248,4.073,4.073,0,0,0-.832,1.368,4.825,4.825,0,0,0-.3,1.7,5.142,5.142,0,0,0,.28,1.712,3.782,3.782,0,0,0,2.16,2.3,4.614,4.614,0,0,0,1.816.336A4.435,4.435,0,0,0,45.645,20.464Zm-0.376-6.288a1.933,1.933,0,0,1,.52,1.272H42.141a2.435,2.435,0,0,1,.592-1.288,1.725,1.725,0,0,1,1.312-.472A1.628,1.628,0,0,1,45.269,14.176Z"/>
</svg>
