<svg 
 xmlns="http://www.w3.org/2000/svg"
 xmlns:xlink="http://www.w3.org/1999/xlink"
 width="69px" height="73px">
<path fill-rule="evenodd"  fill="rgb(4, 8, 47)"
 d="M43.000,66.815 L44.846,70.848 C45.195,71.613 44.856,72.515 44.090,72.863 C43.882,72.956 43.669,73.000 43.457,73.000 C42.877,73.000 42.322,72.670 42.066,72.110 L39.916,67.413 C38.307,67.647 36.663,67.773 34.990,67.773 C33.927,67.773 32.878,67.718 31.840,67.622 L30.340,70.901 C30.084,71.461 29.530,71.791 28.950,71.791 C28.738,71.791 28.522,71.748 28.318,71.654 C27.550,71.306 27.211,70.404 27.561,69.639 L28.686,67.180 C12.936,64.225 0.980,50.426 0.980,33.887 C0.980,15.202 16.237,0.000 34.990,0.000 C53.743,0.000 68.999,15.201 68.999,33.886 C68.999,49.821 57.899,63.216 43.000,66.815 ZM34.990,64.730 C36.208,64.730 37.408,64.651 38.590,64.514 L35.925,58.692 L33.189,64.673 C33.785,64.708 34.385,64.730 34.990,64.730 ZM34.990,3.042 C17.920,3.042 4.033,16.878 4.033,33.886 C4.033,49.200 15.292,61.935 29.993,64.322 L34.247,55.025 L27.407,40.078 C26.640,40.283 25.858,40.398 25.073,40.398 C24.015,40.398 22.956,40.211 21.938,39.837 C19.674,39.006 17.877,37.347 16.881,35.166 C16.880,35.165 16.880,35.164 16.880,35.163 L10.633,21.512 C10.284,20.747 10.621,19.845 11.389,19.497 C12.158,19.147 13.062,19.485 13.411,20.250 L19.660,33.905 C20.317,35.341 21.501,36.435 22.994,36.982 C24.493,37.533 26.123,37.469 27.587,36.804 C30.596,35.437 31.942,31.917 30.593,28.952 C30.591,28.949 30.589,28.947 30.588,28.944 L24.340,15.290 C23.991,14.526 24.329,13.624 25.097,13.275 C25.862,12.925 26.769,13.265 27.120,14.028 L33.363,27.672 C33.364,27.676 33.367,27.677 33.369,27.681 C35.209,31.704 33.769,36.395 30.185,38.817 L35.925,51.357 L42.217,37.604 C40.675,36.566 39.488,35.093 38.816,33.331 C37.960,31.083 38.039,28.643 39.038,26.466 C39.039,26.464 39.041,26.462 39.042,26.460 L42.191,19.573 C42.191,19.573 42.191,19.573 42.191,19.573 C42.191,19.573 42.191,19.573 42.191,19.573 L42.426,19.059 C42.455,18.997 42.506,18.957 42.541,18.901 C44.806,14.890 49.851,13.209 54.163,15.164 C58.473,17.123 60.511,22.022 58.959,26.356 C58.939,26.419 58.943,26.484 58.914,26.546 L58.680,27.058 C58.680,27.059 58.680,27.059 58.679,27.060 C58.679,27.061 58.679,27.061 58.679,27.061 L55.525,33.953 C55.524,33.954 55.525,33.955 55.524,33.956 C54.022,37.238 50.748,39.178 47.320,39.178 C46.547,39.178 45.767,39.066 44.996,38.862 L37.603,55.024 L41.707,63.990 C55.557,60.924 65.946,48.595 65.946,33.886 C65.946,16.878 52.061,3.042 34.990,3.042 ZM44.814,35.590 C44.814,35.591 44.815,35.590 44.815,35.591 C44.816,35.591 44.816,35.592 44.817,35.592 C47.831,36.960 51.388,35.661 52.746,32.694 C52.746,32.693 52.746,32.693 52.746,32.692 L55.899,25.802 C55.899,25.801 55.899,25.800 55.900,25.799 C57.257,22.831 55.909,19.303 52.896,17.932 C49.883,16.562 46.325,17.868 44.969,20.834 C44.969,20.834 44.969,20.834 44.969,20.834 L41.817,27.726 C41.817,27.727 41.816,27.728 41.815,27.729 C41.158,29.163 41.108,30.770 41.671,32.254 C42.237,33.740 43.353,34.926 44.814,35.590 ZM25.760,32.809 C25.552,32.900 25.337,32.946 25.126,32.946 C24.548,32.946 23.992,32.614 23.737,32.056 L17.488,18.402 C17.139,17.638 17.476,16.735 18.244,16.387 C19.011,16.039 19.917,16.377 20.266,17.140 L26.515,30.794 C26.865,31.557 26.527,32.461 25.760,32.809 Z"/>
</svg>