<svg 
 xmlns="http://www.w3.org/2000/svg"
 xmlns:xlink="http://www.w3.org/1999/xlink"
 width="66px" height="74px">
<path fill-rule="evenodd"  fill="rgb(4, 8, 47)"
 d="M-0.009,74.000 L13.058,35.745 L17.805,35.745 C18.276,36.570 18.767,37.418 19.286,38.285 L14.857,38.285 L3.526,71.460 L62.430,71.460 L50.773,38.276 L46.737,38.232 C47.250,37.369 47.739,36.527 48.204,35.706 L52.560,35.754 L65.998,74.000 L-0.009,74.000 ZM33.986,51.197 L32.996,52.486 L32.000,51.197 C31.957,51.140 27.618,45.508 23.341,38.777 C17.507,29.597 14.548,22.805 14.548,18.591 C14.548,16.082 15.035,13.647 15.998,11.354 C16.928,9.140 18.256,7.151 19.951,5.445 C21.644,3.738 23.617,2.397 25.813,1.462 C28.087,0.492 30.503,-0.000 32.994,-0.000 C35.482,-0.000 37.899,0.492 40.173,1.462 C42.370,2.398 44.343,3.739 46.036,5.445 C47.730,7.152 49.059,9.140 49.988,11.354 C50.951,13.647 51.438,16.082 51.438,18.591 C51.438,22.805 48.479,29.597 42.646,38.777 C38.368,45.508 34.029,51.140 33.986,51.197 ZM32.996,2.540 C24.213,2.540 17.070,9.741 17.070,18.592 C17.070,22.260 19.972,28.767 25.463,37.407 C28.461,42.121 31.481,46.284 32.995,48.318 C34.510,46.281 37.539,42.110 40.537,37.392 C46.022,28.759 48.920,22.259 48.920,18.593 C48.920,9.741 41.776,2.540 32.996,2.540 ZM32.993,24.803 C29.287,24.803 26.273,21.765 26.273,18.030 C26.273,14.295 29.287,11.255 32.993,11.255 C36.700,11.255 39.715,14.295 39.715,18.030 C39.715,21.765 36.700,24.803 32.993,24.803 ZM32.993,13.796 C30.678,13.796 28.794,15.695 28.794,18.030 C28.794,20.364 30.678,22.264 32.993,22.264 C35.310,22.264 37.194,20.364 37.194,18.030 C37.194,15.695 35.310,13.796 32.993,13.796 Z"/>
</svg>