<svg xmlns="http://www.w3.org/2000/svg" xmlns:xlink="http://www.w3.org/1999/xlink" version="1.1" x="0px" y="0px" viewBox="0 0 512 512" enable-background="new 0 0 512 512" xml:space="preserve"><g><path d="M256,2C157.8,2,78.2,81.6,78.2,179.8c0,85.5,134.9,279.2,169.7,326.1c4.1,5.5,12.2,5.5,16.2,0   c34.8-46.9,169.7-240.6,169.7-326.1C433.8,81.6,354.2,2,256,2z M256,306.8c-70.1,0-127-56.9-127-127c0-70.1,56.9-127,127-127   c70.1,0,127,56.9,127,127C383,249.9,326.1,306.8,256,306.8z"></path><path d="M256,103.6c-42.1,0-76.2,34.1-76.2,76.2c0,42.1,34.1,76.2,76.2,76.2s76.2-34.1,76.2-76.2   C332.2,137.7,298.1,103.6,256,103.6z"></path></g></svg>