<svg xmlns="http://www.w3.org/2000/svg" width="66" height="66" viewBox="0 0 66 66">
  <defs>
    <style>
      .cls-1 {
        fill-rule: evenodd;
        opacity: 0.6;
      }
    </style>
  </defs>
  <path class="cls-1" d="M56,20.028a34.543,34.543,0,0,0-17.438-7.663c-0.576-.079-1.161-0.148-1.727-0.215-0.267-.032-0.533-0.086-0.8-0.123L36,12H32.055l-0.077.027c-0.349.046-.7,0.1-1.049,0.139-0.754.088-1.531,0.184-2.3,0.312A35.175,35.175,0,0,0,6.584,25.56a2.353,2.353,0,0,0,.09,3.2C7.32,29.463,8,30.181,8.764,30.948a1.89,1.89,0,0,0,1.358.625h0.068a1.932,1.932,0,0,0,1.395-.764c0.178-.214.351-0.431,0.517-0.643s0.316-.4.477-0.592a27.6,27.6,0,0,1,30.085-8.741,28.478,28.478,0,0,1,13.609,9.791,1.854,1.854,0,0,0,3.133.166l1.175-1.229,0.557-.586a2.443,2.443,0,0,0,.154-3.58A36.177,36.177,0,0,0,56,20.028ZM34.105,48.187a4.268,4.268,0,0,0-4.187,3.419,4.425,4.425,0,0,0,2.508,5.028c0.158,0.066.318,0.129,0.478,0.192a0.988,0.988,0,0,1,.287.064,1.049,1.049,0,0,1,.153.031l0.022,0.026c0.1,0,.192.054,0.285,0.054H34.48a0.35,0.35,0,0,1,.324-0.065c0.064-.019.122-0.045,0.194-0.06,0.017-.007.035-0.021,0.052-0.028,0.1-.046.2-0.09,0.3-0.123a4.41,4.41,0,0,0,2.811-4.764A4.3,4.3,0,0,0,34.105,48.187ZM53.667,35.732a0.086,0.086,0,0,0,0-.016c-0.008-.041-0.016-0.081-0.023-0.123a1.375,1.375,0,0,1-.1-0.381c-0.007-.02-0.016-0.039-0.024-0.058a4.061,4.061,0,0,0-.5-0.948C47,26.439,39.281,23.241,30.069,24.7c-6.1.965-11.229,4.232-15.238,9.712a2.423,2.423,0,0,0,.108,3.013c0.7,0.8,1.49,1.628,2.4,2.523a1.6,1.6,0,0,0,1.18.478,1.743,1.743,0,0,0,1.238-.615,4.057,4.057,0,0,0,.347-0.474c0.027-.041.054-0.082,0.082-0.123A16.479,16.479,0,0,1,39.79,32.775a17.075,17.075,0,0,1,8.1,6.548,2.182,2.182,0,0,0,1.492,1.106h0.114a2.291,2.291,0,0,0,1.549-.851q0.265-.278.536-0.551c0.444-.454.9-0.923,1.324-1.431a4.616,4.616,0,0,0,.589-1.019c0.023-.049.049-0.1,0.073-0.15a2.188,2.188,0,0,1,.1-0.273V36.1c0-.017.008-0.052,0.012-0.076A1.239,1.239,0,0,1,53.667,35.732ZM46.12,43.29c-0.021-.053-0.041-0.107-0.061-0.16a2.969,2.969,0,0,0-.443-0.861,14.768,14.768,0,0,0-23.128-.127,2.382,2.382,0,0,0,.023,3.253c0.632,0.7,1.339,1.446,2.241,2.352a1.718,1.718,0,0,0,1.273.559,1.764,1.764,0,0,0,1.27-.637,5.091,5.091,0,0,0,.321-0.406c0.078-.1.151-0.2,0.225-0.289a7.668,7.668,0,0,1,8.025-2.755,7.823,7.823,0,0,1,4.654,3.207,1.9,1.9,0,0,0,1.383.878H42a1.952,1.952,0,0,0,1.393-.7c0.164-.17.331-0.339,0.5-0.509,0.509-.518,1.033-1.054,1.515-1.626A4.447,4.447,0,0,0,46,44.462h0a2.148,2.148,0,0,1,.122-0.423V43.971l0.007-.047a2.229,2.229,0,0,1,.038-0.289c0-.045-0.01-0.092-0.011-0.139A1.349,1.349,0,0,1,46.12,43.29Z"/>
</svg>
